/* XPM */
static char *_553010157596[] = {
/* columns rows colors chars-per-pixel */
"25 25 75 1 ",
"  c #6D3A0F",
". c #7F4411",
"X c #814612",
"o c #884A14",
"O c #8D4F19",
"+ c #A3701E",
"@ c #9A5E2C",
"# c #C99A2B",
"$ c #FECA18",
"% c #FECA19",
"& c #FECB19",
"* c #FECB1A",
"= c #FECC1C",
"- c #FECD1D",
"; c #FECD1E",
": c #FECE21",
"> c #FECF21",
", c #FECF23",
"< c #FED024",
"1 c #FED125",
"2 c #FED227",
"3 c #FED228",
"4 c #FED329",
"5 c #FFD32A",
"6 c #FFD42B",
"7 c #FFD52E",
"8 c #FFD731",
"9 c #FFD832",
"0 c #FFD834",
"q c #FFD934",
"w c #FFD935",
"e c #FFDA36",
"r c #FFDA37",
"t c #FFDA38",
"y c #FFDB39",
"u c #FFDB3A",
"i c #FFDC3A",
"p c #FFDC3B",
"a c #FFDC3C",
"s c #FFDC3D",
"d c #FFDE3C",
"f c #FFDC3E",
"g c #FFDC3F",
"h c #E4BE56",
"j c #FFDD40",
"k c #FFDD41",
"l c #FFDD44",
"z c #FFDD47",
"x c #FFDE4B",
"c c #FFDE4F",
"v c #FFDE50",
"b c #FFDE53",
"n c #FFDF53",
"m c #FFDF5A",
"M c #FFDF5C",
"N c #FFE060",
"B c #FFE160",
"V c #FFE061",
"C c #FFE062",
"Z c #FFE065",
"A c #FFE166",
"S c #FFE167",
"D c #FFE168",
"F c #FFE169",
"G c #FFE16A",
"H c #FFE16B",
"J c #FFE270",
"K c #FFE271",
"L c #FFE275",
"P c #FFE276",
"I c #FFE37D",
"U c #FFE37E",
"Y c #FFE37F",
"T c #FFE382",
"R c None",
/* pixels */
"RRRRRRRRRRRRRRRRRRRRRROX ",
"RRRRRRRRRRRRRRRRRRRRR@o. ",
"RRRRRRRRRRRRRRRRRRRRRh#+R",
"RRRRRRRRRRRRRRRRRRRRRCiRR",
"RRRRRRRRRRRRRRRRRRRRRviRR",
"RRRRRRRRRRRRRRRRRRRRKziRR",
"RRRRRRRRRRRRRRRRRRRRmiy3R",
"RRRRRRRRRRRRRRRRRRRKjgy:R",
"RRRRRRRRRRRRRRRRRRUbigy-&",
"RRRRRRRRRRRRRRRRRRCiii8&$",
"RRRRRRRRRRRRRRRRRFgiii3&$",
"RRRRRRRRRRRRRRRRFjiige-&R",
"RRRRRRRRRRRRRRRFjiigy7$&R",
"RRRRRRRRRRRRRRAjigiie&$RR",
"RRRRRRRRRRRRRCgiiigy:&&RR",
"RRRRRRRRRRRUMigiiii<$&RRR",
"RRRRRRRRRRLvgiigii3&&RRRR",
"RRRRRRRRRAzigiiii3&&RRRRR",
"RRRRRRUAcgiiiige<$$RRRRRR",
"RRRTLCxgiiigii9<&&RRRRRRR",
"RFCvjiiiiiiiy7&$&RRRRRRRR",
"jgiiigiigyg9<&&&RRRRRRRRR",
"iggiiiigyy3=&&RRRRRRRRRRR",
"Riiyyye83-&&RRRRRRRRRRRRR",
"RR83<:-&&$RRRRRRRRRRRRRRR"
};
