/* XPM */
static char *_553004694274[] = {
/* columns rows colors chars-per-pixel */
"25 25 153 2 ",
"   c #07181F",
".  c #1C1F14",
"X  c #10181D",
"o  c #202318",
"O  c #272A1F",
"+  c #061F29",
"@  c #081F2A",
"#  c #151D22",
"$  c #06202C",
"%  c #0A222D",
"&  c #1C2326",
"*  c #0C2631",
"=  c #0E2935",
"-  c #0E2C39",
";  c #112934",
":  c #122E3B",
">  c #13313D",
",  c #1A313B",
"<  c #202427",
"1  c #21242D",
"2  c #21292B",
"3  c #2A2E31",
"4  c #252E3D",
"5  c #2E3432",
"6  c #23353A",
"7  c #2C373B",
"8  c #27383F",
"9  c #323836",
"0  c #32353E",
"q  c #353C3D",
"w  c #143543",
"e  c #183642",
"r  c #163947",
"t  c #183946",
"y  c #163B4A",
"u  c #1A3C4A",
"i  c #282E44",
"p  c #263242",
"a  c #2B3C43",
"s  c #2E344A",
"d  c #203E4A",
"f  c #2E3A4A",
"g  c #333C42",
"h  c #3A3D46",
"j  c #313D4D",
"k  c #2F3750",
"l  c #2E3D57",
"z  c #313952",
"x  c #373F58",
"c  c #253862",
"v  c #2D3B62",
"b  c #1C414F",
"n  c #1D4251",
"m  c #1F4857",
"M  c #21424E",
"N  c #3F4543",
"B  c #37404F",
"V  c #3B424C",
"C  c #204553",
"Z  c #2D4353",
"A  c #234957",
"S  c #294A57",
"D  c #244D5C",
"F  c #294E5B",
"G  c #364D57",
"H  c #3F4857",
"J  c #33425C",
"K  c #374D5A",
"L  c #27505E",
"P  c #2A505E",
"I  c #3C535D",
"U  c #234F60",
"Y  c #374761",
"T  c #3C4C64",
"R  c #344B6D",
"E  c #394B6F",
"W  c #255162",
"Q  c #2B5462",
"!  c #2B5969",
"~  c #325C6B",
"^  c #374E70",
"/  c #3C4C75",
"(  c #3D4B7C",
")  c #414A59",
"_  c #45575B",
"`  c #4B555F",
"'  c #4D585C",
"]  c #42536B",
"[  c #4D5F6B",
"{  c #475E70",
"}  c #4B5A71",
"|  c #43547B",
" . c #435A7C",
".. c #495B7F",
"X. c #586367",
"o. c #546C6E",
"O. c #4D6371",
"+. c #596B77",
"@. c #54667A",
"#. c #546473",
"$. c #5F7779",
"%. c #626F65",
"&. c #74786A",
"*. c #646E78",
"=. c #697C76",
"-. c #79857B",
";. c #445283",
":. c #4C5A81",
">. c #4D6582",
",. c #4E6389",
"<. c #516386",
"1. c #506884",
"2. c #5A6980",
"3. c #546A8D",
"4. c #56718F",
"5. c #5C728C",
"6. c #576C91",
"7. c #5A6D92",
"8. c #5F7793",
"9. c #5D7896",
"0. c #5C7498",
"q. c #637A8C",
"w. c #627697",
"e. c #657B94",
"r. c #6B7E93",
"t. c #647B9D",
"y. c #6371A2",
"u. c #7C8C89",
"i. c #6F8195",
"p. c #6C839E",
"a. c #738591",
"s. c #788A96",
"d. c #7A8A99",
"f. c #7E9698",
"g. c #6A82A3",
"h. c #7488A3",
"j. c #738AAA",
"k. c #7588B2",
"l. c #798BB3",
"z. c #7A90B2",
"x. c #839086",
"c. c #899C96",
"v. c #9AA79D",
"b. c #A6AA9C",
"n. c #8292A1",
"m. c #95A8A2",
"M. c #8FA5B2",
"N. c #A2AEA4",
"B. c #A3B0A6",
"V. c #A0B0AD",
"C. c #A5B8B2",
"Z. c #A5BDBF",
"A. c #A2B2C1",
/* pixels */
"A D A F P ! L W D D b - n b m L W D Q U F F F F u ",
"~ P S F L D D L L W m b ! L W W W Q Q Q P P Q Q t ",
"~ F D A D D D L m W n b Q A W W F D D F F F F A w ",
"! F D c k.k.T Z ;.y.y.( R  .,.,./ | %.x.x.&.S D w ",
"! P P /  .| J ^ ( ( |  .R ..7.0.v :.B.m.v.b.Q Q w ",
"D t t 3.^ ^ Z q.,.6.3.w.8.3.R R z.6.m.C.C.N.t t * ",
"A n b t.g.g.O.O.k.7.6.,.5.g. . .6.7.=.c.c.-.C n u ",
"~ ! ! p.r.e.T I ] 7.5.8.5.9.9.9.6.,.$.o.o.u.Q ~ ! ",
"Q Q D r.e.r.G , w.h.r.t.2.,.5.4.9.9.f.Z.Z.V.S F Q ",
"F F U [ +.+., a d.A.Z.r.@.<.p.g.z.j.M.O.O.6 F D U ",
"W U P [ +.+.6 a d.A.A.r.@.>.p.p.l.j.M.O.O.6 D L W ",
"t t u a.s.s.6   #.n.n.r.i.0.@.>.1.>.Z K K _ t u r ",
"> = * ' X.X.N # 2 g q ) H T l l l Y } 2.+.*.> > w ",
"! u e 7 q 9 & X < & & 4 B ] J J J Y T ] ] ] L Q Q ",
"L t e 5 5 9 < < O . . 1 h s i i p f z x H h A A D ",
"W w r q N ) 3 # o . . 1 g s s s f z z z z g F D D ",
"! w y Q W W Q Q Q Q U ! > A Q F U Q P W U P F W W ",
"n - - b r w w y n u t d ; t C n u u n n M M n n n ",
"w - - r w - > > @ ; : : w w w : w e w : - = + - w ",
"! ! ! ! Q Q Q A * Q Q ! ! Q Q Q ~ Q Q Q Q e > ! W ",
"D m D m A D D n = A D F D Q A A A F F m W r = ! D ",
"L D D D D m m n = A P Q Q Q U m D D F D W w * ! F ",
"D D m W D D U n = A F Q P Q D m m W D D L w - Q D ",
"D D D D D F W n = A Q W D D D F D U D m W t > Q F ",
"= = = > > > : = $ - = * * ; * * % * * % = % @ * ; "
};
