/* XPM */
static char *_552997349014[] = {
/* columns rows colors chars-per-pixel */
"25 25 38 1 ",
"  c #061F29",
". c #081F2A",
"X c #06202C",
"o c #0A222D",
"O c #0C2632",
"+ c #0E2935",
"@ c #0E2C39",
"# c #112934",
"$ c #112E3A",
"% c #13313D",
"& c #143542",
"* c #193642",
"= c #163947",
"- c #193946",
"; c #163B49",
": c #1B3D4A",
"> c #203E4A",
", c #1C414E",
"< c #1D4352",
"1 c #1F4857",
"2 c #22424E",
"3 c #214554",
"4 c #234956",
"5 c #2C4C57",
"6 c #244D5C",
"7 c #294E5B",
"8 c #27505F",
"9 c #2A515E",
"0 c #34535D",
"q c #234F60",
"w c #255162",
"e c #2B5463",
"r c #2C596A",
"t c #305663",
"y c #325966",
"u c #325C6B",
"i c #2E5E70",
"p c #306273",
/* pixels */
"44479r8w66<@<117w7ww7977:",
"ue7776688w1,e6wwweewe77e;",
"u74666796w<;eqqq86667776&",
"u46668w41w1;e11w66677546&",
"r79ewe99994,r78wqqe97eee&",
"6;-:,:>:*:-*,*-*;:*->*;-O",
"4<,::-$$,,3:,,::<+&3,<<<:",
"urrryu33yytereeee;7prrryr",
"996599:2006647546&161657w",
"98899e:2098995846$we6666w",
"ww999r:3yee099978*7w6876w",
"-=::-2%-3:,:::--=+=;==;:;",
"%+o%%%%*%*%@o#:&&==&&&$%*",
"r:*re999rrer%9peeeereewee",
"8=&666677868@1w1667611476",
"w*=w6ww79967@4866677qw4q1",
"r&,wqqewewqe*3e7qeeqq77wq",
"<@@,==*:<;;>#;3>:::3>3<<<",
"&@@&&$%$.$$$%&&$&&&$$+ $&",
"rrrrwwr1O7trrererreee&%re",
"w161446<O477w7664741q&@r6",
"8661661<O4eeee116766q*Or7",
"6618666<+67e9w716w66w&@e6",
"66666681O6ww67761666w&%e7",
"+++$%%$+X@+OO#OOOOOOOo.OO"
};
