/* XPM */
static char *_552997361303[] = {
/* columns rows colors chars-per-pixel */
"25 25 84 1 ",
"  c gray28",
". c #4C4C4C",
"X c #4E4E4E",
"o c gray33",
"O c #585858",
"+ c #5A5A5A",
"@ c gray37",
"# c #626262",
"$ c gray39",
"% c #6A6A6A",
"& c gray42",
"* c #6C6C6C",
"= c #6F6F6F",
"- c gray44",
"; c #717171",
": c #727272",
"> c gray45",
", c #747474",
"< c gray46",
"1 c #767676",
"2 c #777777",
"3 c gray47",
"4 c #797979",
"5 c gray48",
"6 c #7B7B7B",
"7 c #7C7C7C",
"8 c gray49",
"9 c #7E7E7E",
"0 c gray50",
"q c #808080",
"w c #818181",
"e c gray51",
"r c #838383",
"t c #848484",
"y c gray52",
"u c #868686",
"i c gray53",
"p c #888888",
"a c #898989",
"s c gray54",
"d c #8B8B8B",
"f c gray55",
"g c #8D8D8D",
"h c #8E8E8E",
"j c gray56",
"k c #909090",
"l c gray57",
"z c #929292",
"x c #939393",
"c c gray58",
"v c #959595",
"b c gray59",
"n c #979797",
"m c #989898",
"M c gray60",
"N c #9A9A9A",
"B c #9B9B9B",
"V c #9D9D9D",
"C c gray62",
"Z c #A0A0A0",
"A c #A2A2A2",
"S c gray64",
"D c #A9A9A9",
"F c gray69",
"G c #B6B6B6",
"H c #B9B9B9",
"J c #BBBBBB",
"K c gray74",
"L c gray75",
"P c #C1C1C1",
"I c gray76",
"U c #C3C3C3",
"Y c #D5D5D5",
"T c #DADADA",
"R c gainsboro",
"E c #DFDFDF",
"W c gray89",
"Q c gray90",
"! c #E9E9E9",
"~ c #EAEAEA",
"^ c gray92",
"/ c #ECECEC",
"( c gray93",
") c None",
/* pixels */
")))))YRW~///////~QRT)))))",
")))))5tzZDFGKKUUUUKJ)))))",
")))))).o+##&,qdznmV))))))",
"))))))))**,5qdgzz))))))))",
")))))))),5qtznnzz))))))))",
"))))))))59tdznmmn))))))))",
"))))))))5qtgzzzzz))))))))",
")))))))),9tgggzzz))))))))",
")))))))),9tgzznnm))))))))",
"))))))))59qtgnnzz))))))))",
"))))))))qqddgzzzz))))))))",
"))))))))qtdgnnnzz))))))))",
"))))))))59tgznnzz))))))))",
")))))))),9tddzzzz))))))))",
"))))))))9qtgznnmm))))))))",
"))))))))9tdgznnnm))))))))",
"))))))))59tggnnzn))))))))",
")))))))),5qggnmmm))))))))",
"))))))))59tgznmmm))))))))",
"))))))))9qttznmVm))))))))",
"))))))))59tggnnnn))))))))",
"))))))))9qtggzznz))))))))",
")))))))9959qtggggg)))))))",
")))))::::::,,9qqdznm)))))",
"))))) .+#&:5qtgnmVZS)))))"
};
