/* XPM */
static char *_552997370846[] = {
/* columns rows colors chars-per-pixel */
"25 25 141 2 ",
"   c #3E3E3E",
".  c #3A3A3A",
"X  c #444444",
"o  c #434343",
"O  c #414141",
"+  c gray26",
"@  c gray25",
"#  c #3F3F3F",
"$  c gray24",
"%  c gray21",
"&  c #313131",
"*  c gray20",
"=  c gray23",
"-  c #3C3C3C",
";  c gray22",
":  c gray19",
">  c #484848",
",  c #353535",
"<  c #323232",
"1  c #2D2D2D",
"2  c gray16",
"3  c #2A2A2A",
"4  c gray18",
"5  c gray30",
"6  c gray28",
"7  c #393939",
"8  c #373737",
"9  c #343434",
"0  c gray29",
"q  c #585858",
"w  c gray27",
"e  c gray33",
"r  c #606060",
"t  c gray35",
"y  c #494949",
"u  c #4B4B4B",
"i  c #4C4C4C",
"p  c #535353",
"a  c #5D5D5D",
"s  c gray39",
"d  c #5B5B5B",
"f  c #4E4E4E",
"g  c #515151",
"h  c gray32",
"j  c gray31",
"k  c #505050",
"l  c #464646",
"z  c gray36",
"x  c DimGray",
"c  c #6A6A6A",
"v  c gray40",
"b  c #555555",
"n  c #686868",
"m  c #646464",
"M  c #626262",
"N  c #5A5A5A",
"B  c gray34",
"V  c #565656",
"C  c #747474",
"Z  c #7C7C7C",
"A  c #727272",
"S  c #676767",
"D  c gray42",
"F  c #6D6D6D",
"G  c gray45",
"H  c #6C6C6C",
"J  c gray43",
"K  c #6C6D6C",
"L  c gray50",
"P  c gray53",
"I  c gray49",
"U  c #656565",
"Y  c gray44",
"T  c #777777",
"R  c #7E7E7E",
"E  c #868686",
"W  c #60605F",
"Q  c #61605E",
"!  c #636364",
"~  c #626363",
"^  c gray46",
"/  c gray57",
"(  c #8B8B8B",
")  c #717171",
"_  c #767676",
"`  c #7B7B7B",
"'  c #5C5D5F",
"]  c #6A6D77",
"[  c #7C7F7A",
"{  c #757771",
"}  c #646262",
"|  c gray47",
" . c gray54",
".. c #939393",
"X. c #818181",
"o. c #A5A5A5",
"O. c gray61",
"+. c #848484",
"@. c #808080",
"#. c #898989",
"$. c #838383",
"%. c #828281",
"&. c #5A5B5E",
"*. c #5B5F6B",
"=. c #5E5E5B",
"-. c #63625F",
";. c #5E5D5C",
":. c gray60",
">. c #9F9F9F",
",. c #909090",
"<. c #ACACAC",
"1. c #A9A9A9",
"2. c #8D8D8D",
"3. c #929292",
"4. c #979797",
"5. c gray59",
"6. c #8E8E8E",
"7. c gray58",
"8. c gray55",
"9. c #515150",
"0. c #3F3F3D",
"q. c #464647",
"w. c #A0A0A0",
"e. c #AFAFAF",
"r. c #9A9A9A",
"t. c gray62",
"y. c #888888",
"u. c gray52",
"i. c #797979",
"p. c gray48",
"a. c #252525",
"s. c #6F6F6F",
"d. c #181818",
"f. c gray12",
"g. c gray15",
"h. c gray37",
"j. c gray38",
"k. c #5F5F5F",
"l. c #2C2C2C",
"z. c #272727",
"x. c white",
/* pixels */
"  . X o o O + @ O # # # # # + + # # + O $ + # % & ",
"@ * = #   = #   - .     . . - . ;   - $ - # . : & ",
"> o , < % < : % : : , : 1 : 1 2 3 4 4 1 4 4 ; + . ",
"5 6 = 7 $ 7 = # ; ; # . $ # 7 , $ 8 9 $ * : + 0 $ ",
"q 5 . + ; - o - @ O . + w ; . # & 7   , % ; > e 6 ",
"r t # O X w y 5 5 0 u i > X 6 w - O O O @ # p a i ",
"s d w 0 i f g p e h j e p k k j u 0 y 0 0 l z x p ",
"c v k b q t t a a a a s n m M a N B q p V p x C r ",
"Z A d r m v S D S F A A G H m c D J K D v s C L c ",
"P I U D J Y T T G T R E L G G W Q ! ! ~ Y J I P ^ ",
"/ ( Y ) _ ^ ` I Z L Z L E L R ' ] [ { } T |  ...X.",
"o.O.+.@.X.L E E E #. .$.E #.%.&.*.=.-.;.Y +.:.>.,.",
"<.1./ ..,.2.../ 3.4.5...6.7.8.9.0.O q.w A / w.e.r.",
"w.t.P y.y.P E +.y.y.E u.+.2. .y - j 6 5 ^ #.2.o.6.",
"5...i.p.X.p.C G G G Y | C i.i.X a.: : . s.Y X.:.I ",
"3.E H F _ | A s.H ) n H H H Y $ d.f.g.f.x D ` ( G ",
"@.G h.F G | Y D v c x H J F H y y w g j F n ^ @.x ",
"J U B x D H F x v v x D S n v x F Y F F U j.) A j.",
"m j.h s M r r r k.j.s M a a s j.k.a r k.h.h.x v V ",
"r q N x s n m M M r M j.h.M v s k.U M r v S m s g ",
"t e 0 k 5 j 5 u i 0 u 5 6 y y 6 i k i j f 5 f h y ",
"f 5 o k > X 0 6 + 6 o # 6 w . X >   > y @ 0 i u $ ",
"> o   e 0 > k o > f O @ i + = w + 6 i - o u i X ; ",
"# * @ y 6 w y 6 > w y > w 6 l l X 6 y w o > O 8 < ",
"% < 7 = . . . ; 8 % ; , * ; ; 8 8 8 ; 8 % 8 , l.z."
};
