/* XPM */
static char *_553010673548[] = {
/* columns rows colors chars-per-pixel */
"25 25 2 1 ",
"  c red",
". c None",
/* pixels */
".................     ...",
"................      ...",
"................     ....",
"...............      ....",
"...............     .....",
"..............     ......",
".............     .......",
"....  .......    ........",
"...    .....     ........",
"..       ..     .........",
"...            ..........",
".....         ...........",
".......       ...........",
"........        .........",
"........         ........",
".......            ......",
"......     ...      .....",
"......    ......      ...",
".....    ........      ..",
"....    ...........     .",
"....   ..............   .",
"...   .................. ",
"..   ....................",
".   .....................",
"  ......................."
};
