/* XPM */
static char *_552997379548[] = {
/* columns rows colors chars-per-pixel */
"25 25 221 2 ",
"   c #757776",
".  c #7A7B7D",
"X  c #7C7E7D",
"o  c #7F8082",
"O  c #818183",
"+  c gray51",
"@  c #838582",
"#  c #848482",
"$  c #828385",
"%  c #878785",
"&  c #848587",
"*  c #868688",
"=  c #868789",
"-  c #888888",
";  c #898989",
":  c #8B8B89",
">  c #88898B",
",  c gray54",
"<  c #8C8C8A",
"1  c #898A8C",
"2  c #8A8A8C",
"3  c gray55",
"4  c #8D8D8D",
"5  c #8E8E8C",
"6  c #8F8F8D",
"7  c #8C8C8E",
"8  c #8D8D8F",
"9  c #8F8D8E",
"0  c #90908E",
"q  c #91918F",
"w  c #8E8E90",
"e  c #8F8F91",
"r  c #8F8E93",
"t  c #918F90",
"y  c #908F94",
"u  c #909090",
"i  c gray57",
"p  c #929290",
"a  c #939391",
"s  c #909092",
"d  c #939592",
"f  c #949492",
"g  c #959593",
"h  c #939395",
"j  c #929196",
"k  c gray58",
"l  c #959595",
"z  c #979795",
"x  c #949496",
"c  c gray59",
"v  c #979797",
"b  c #989795",
"n  c #969895",
"m  c #989896",
"M  c #999997",
"N  c #959499",
"B  c #969698",
"V  c #96959A",
"C  c #989898",
"Z  c #999B98",
"A  c #9A9A98",
"S  c #9B9A98",
"D  c #9B9B99",
"F  c #98989A",
"G  c #9A9A9A",
"H  c #9B9B9B",
"J  c #9A9C9B",
"K  c #9C9C9A",
"L  c #9D9D9B",
"P  c #9E9F9A",
"I  c #99989D",
"U  c #9B9B9D",
"Y  c #9B9A9F",
"T  c gray61",
"R  c #9D9D9D",
"E  c #9E9E9C",
"W  c #9F9F9D",
"Q  c #9D9D9F",
"!  c gray62",
"~  c #9F9F9F",
"^  c #9EA09D",
"/  c #A1A29D",
"(  c #A0A09E",
")  c #A1A19F",
"_  c #A2A39E",
"`  c #9998A0",
"'  c #9F9FA1",
"]  c #9D9CA2",
"[  c #9E9DA3",
"{  c #A09FA5",
"}  c #A0A0A0",
"|  c gray63",
" . c #A2A2A0",
".. c #A3A3A1",
"X. c #A0A0A2",
"o. c #A2A2A2",
"O. c gray64",
"+. c #A4A5A0",
"@. c #A5A6A1",
"#. c #A6A7A1",
"$. c #A4A4A2",
"%. c #A5A4A2",
"&. c #A5A5A3",
"*. c #A6A7A2",
"=. c #A1A0A6",
"-. c #A2A1A6",
";. c #A3A2A7",
":. c #A4A4A4",
">. c #A5A5A5",
",. c #A6A6A4",
"<. c #A7A7A5",
"1. c gray65",
"2. c #A7A7A7",
"3. c #A7A8A3",
"4. c #A8A9A3",
"5. c #A9A8A4",
"6. c #A8A9A4",
"7. c #AAA9A5",
"8. c #A9AAA4",
"9. c #A9AAA5",
"0. c #AAABA5",
"q. c #A8A8A6",
"w. c #A9A8A6",
"e. c #A9A9A7",
"r. c #AAABA6",
"t. c #ACABA7",
"y. c #ABACA6",
"u. c #ABACA7",
"i. c #ACADA7",
"p. c #A5A4A9",
"a. c #A7A7A9",
"s. c #A5A4AA",
"d. c #A6A5AA",
"f. c #A6A5AB",
"g. c #A9A9A9",
"h. c #AAAAA8",
"j. c #ABABA9",
"k. c #A8A8AA",
"l. c #AAAAAA",
"z. c gray67",
"x. c #ACADA8",
"c. c #ADAEA9",
"v. c #AEAFA9",
"b. c #ACACAA",
"n. c #ADADAB",
"m. c #AEAFAA",
"M. c #ABABAD",
"N. c #ABAAAF",
"B. c #ACACAC",
"V. c gray68",
"C. c #AEAEAC",
"Z. c #AFAEAC",
"A. c #AFAFAD",
"S. c #AEAEAE",
"D. c #AFAFAF",
"F. c #AFB0AA",
"G. c #AFB0AB",
"H. c #B0B1AC",
"J. c #B1B2AD",
"K. c #B0B0AE",
"L. c #B1B0AE",
"P. c #B1B1AF",
"I. c #B2B3AE",
"U. c #B3B4AF",
"Y. c #AEAEB0",
"T. c #AFAFB1",
"R. c gray69",
"E. c #B1B1B1",
"W. c #B2B2B0",
"Q. c #B3B3B1",
"!. c #B0B0B2",
"~. c #B1B1B3",
"^. c #B2B2B2",
"/. c gray70",
"(. c #B4B5B0",
"). c #B5B6B1",
"_. c #B4B4B2",
"`. c #B5B5B3",
"'. c #B6B7B2",
"]. c gray71",
"[. c #B6B6B4",
"{. c #B7B7B5",
"}. c #B4B4B6",
"|. c #B5B5B7",
" X c #B6B6B6",
".X c #B7B7B7",
"XX c #B7B8B3",
"oX c #B8B9B4",
"OX c #B9BAB5",
"+X c #B8B8B6",
"@X c #B9B9B7",
"#X c #BABBB6",
"$X c #BBBCB7",
"%X c #B6B6B8",
"&X c #B7B7B9",
"*X c gray72",
"=X c #B9B9B9",
"-X c #BABAB8",
";X c #BBBBB9",
":X c #B8B8BA",
">X c #B9B9BB",
",X c #BBBBBB",
"<X c #BCBDB8",
"1X c #BDBEB9",
"2X c #BCBCBA",
"3X c #BDBDBB",
"4X c #BEBDBB",
"5X c #BEBFBA",
"6X c #BDBBBC",
"7X c #BCBABD",
"8X c #BCBCBC",
"9X c gray74",
"0X c #BEBEBC",
"qX c #BFBEBC",
"wX c #BFBFBD",
"eX c #C0BFBD",
"rX c #BFC0BB",
"tX c #C0C1BC",
"yX c #C0C0BE",
"uX c #C1C0BE",
"iX c #C1C1BF",
/* pixels */
"` s.Y.Y.~.&X&X-X7X7X7X2X8X8X-X:X-X-X0X-X+X!.P.P.n.",
"] s.Y.Y.~.&X&X&X7X8X0X7X0X2X+X:X-X-X-X-X+XP.P._.P.",
"-.s.N.Y.&X&X].].+X2XrX0XrXrX2X#XXX].XXXX_.(.!.+X_.",
"-.s.s.~.].&X].&X2X0XiXiXiXtX#X#XXX!.(.I.H.I._.+X_.",
"] ;.k.Y.~.].].-X-X-X0XeXiXiX0X2XXXI.I.G.F.F.I.XX_.",
"Y -.k.!.!.].].+X,X0XtXeXyX0XtX2XXXXXXXI.I.P.I.I._.",
"I X.s.G.!.].+X-X,X0XtX0XrXrXtX1XrXXXXXXXXXI.I.F.P.",
"I X.,.n.P._.-X2X0XtXeX2X0XrXrX1X#XXX(.XX(.XXP.G.n.",
"B ] ,.n.P.Q.].2X0XeX2X2X2X1X1X1X#XXXI.I.P.I.I.G.S.",
"B T X.k.S.!._.+X,X-X+X$X1X1X1X+XXXXXI.I.H.I.F.F.t.",
"j B X.,.k.P.Q.{.+X{.oX$XOX1XOXoXXXXXU.I.I.I.F.y.t.",
"y B ] ,.n.!.P._._.].oX$XoXoXoXoXXXXXU.U.I.I.i.y.5.",
"y l T ,.n.S.P.P.P._._.oXoXoXU.U.I.I.I.I.U.I.i.t.5.",
"r j T :.k.S.K.!._.oX_.oXU.oXU.H.F.H.F.P.I.P.n.i.5.",
"4 s U X.q.z.P.P._._._._.'.U.H.H.i.i.i.v.F.v.n.i.5.",
"1 4 C ( <.k.P.P._._.oXU.U.I.H.v.i.i.8.i.i.8.i.t.<.",
"1 r C T ,.k.S.n.K.P._.U.U.U.F.i.n.y.q.y.8.3.3.3.+.",
"> 4 l T X.,.q.j.n.n.P.U.I.I.F.i.y.8.3.8.8._ _ _ T ",
"= 3 k C ^ X.,.q.t.t.z.K.H.F.t.q.q.y.+.3.8._ _ ^ K ",
"& , s M L X.:.,.q.q.q.k.n.z.,.+.3.3...<._ ( ^ Z b ",
"$ , t f M L T ....+.,.<.<.,.+.+.( +...,.( L M M f ",
"$ , 4 q s M L T ( ( ..,.;...+.X._ ( X.+.( M M f s ",
"o & , 5 4 q M M L E ( +.( ..( ( ..( ..( E M f q 4 ",
". O # % : 5 f n M C K L L ( L ( ( ( ( ( L M q q % ",
"  X O # % : q f f M M M C J L ^ ( ( L L K f f 5 # "
};
