/* XPM */
static char *_553004728954[] = {
/* columns rows colors chars-per-pixel */
"25 25 173 2 ",
"   c #07181F",
".  c #1C1F14",
"X  c #10181D",
"o  c #202318",
"O  c #272A1F",
"+  c #151D22",
"@  c #1C2326",
"#  c #1A313B",
"$  c #202427",
"%  c #21242D",
"&  c #21292B",
"*  c #2A2E31",
"=  c #252E3D",
"-  c #23353A",
";  c #2C373B",
":  c #27383F",
">  c #2E3432",
",  c #323836",
"<  c #32353E",
"1  c #353C3D",
"2  c #282E44",
"3  c #263242",
"4  c #2E344A",
"5  c #2E3A4A",
"6  c #2B3C43",
"7  c #323C41",
"8  c #3A3D46",
"9  c #313D4D",
"0  c #2F3750",
"q  c #2E3D57",
"w  c #313952",
"e  c #373F58",
"r  c #253862",
"t  c #2D3B62",
"y  c #3F4543",
"u  c #37404F",
"i  c #3B424C",
"p  c #2D4353",
"a  c #364D57",
"s  c #3F4857",
"d  c #33425C",
"f  c #374D5A",
"g  c #3C535D",
"h  c #374761",
"j  c #3C4C64",
"k  c #344B6D",
"l  c #394B6F",
"z  c #374E70",
"x  c #3C4C75",
"c  c #3D4B7C",
"v  c #494B43",
"b  c #4F4F4D",
"n  c #475240",
"m  c #4E504C",
"M  c #4F5B4B",
"N  c #51554E",
"B  c #555C4D",
"V  c #414A59",
"C  c #45575B",
"Z  c #4B555F",
"A  c #4D585C",
"S  c #545553",
"D  c #555955",
"F  c #595A56",
"G  c #565B59",
"H  c #5B5D5A",
"J  c #556147",
"K  c #546149",
"L  c #5B654F",
"P  c #5A6353",
"I  c #5D6954",
"U  c #5D625C",
"Y  c #5F6C5C",
"T  c #61645D",
"R  c #626B5B",
"E  c #6A775E",
"W  c #43536B",
"Q  c #4D5F6B",
"!  c #475E70",
"~  c #4B5A71",
"^  c #43547B",
"/  c #435A7C",
"(  c #495B7F",
")  c #5C6263",
"_  c #546C6E",
"`  c #5F6868",
"'  c #4D6373",
"]  c #596B77",
"[  c #546577",
"{  c #5F7779",
"}  c #616562",
"|  c #646A64",
" . c #6A6C65",
".. c #62666A",
"X. c #656C6B",
"o. c #6A6D6B",
"O. c #706E69",
"+. c #697463",
"@. c #6B726B",
"#. c #67796A",
"$. c #6E7F69",
"%. c #687963",
"&. c #72746D",
"*. c #757B6C",
"=. c #787E6F",
"-. c #666B71",
";. c #6C6E73",
":. c #646E78",
">. c #6B7371",
",. c #697C76",
"<. c #6E7578",
"1. c #727573",
"2. c #737A75",
"3. c #797C74",
"4. c #72767A",
"5. c #747B7A",
"6. c #7A7E7B",
"7. c #758173",
"8. c #7C8375",
"9. c #77827A",
"0. c #7B827C",
"q. c #4C5A81",
"w. c #445283",
"e. c #4D6582",
"r. c #4E6389",
"t. c #516486",
"y. c #506884",
"u. c #5A6980",
"i. c #556A8E",
"p. c #56718F",
"a. c #5C728C",
"s. c #576C91",
"d. c #5A6D92",
"f. c #5F7793",
"g. c #5D7896",
"h. c #5C7498",
"j. c #637A8C",
"k. c #777F80",
"l. c #627697",
"z. c #657B94",
"x. c #6A7E94",
"c. c #647B9D",
"v. c #6371A2",
"b. c #7C8283",
"n. c #7C8C89",
"m. c #6F8195",
"M. c #6C839E",
"N. c #788A96",
"B. c #7A8A99",
"V. c #738591",
"C. c #7E9698",
"Z. c #6A82A3",
"A. c #7488A3",
"S. c #738AAA",
"D. c #7588B2",
"F. c #798BB3",
"G. c #7B90B3",
"H. c #858885",
"J. c #838489",
"K. c #858A89",
"L. c #839086",
"P. c #899C96",
"I. c #9AA79D",
"U. c #A6AA9C",
"Y. c #8292A1",
"T. c #95A8A2",
"R. c #8FA5B2",
"E. c #A2AEA4",
"W. c #A3B0A6",
"Q. c #A0B0AD",
"!. c #A5B8B2",
"~. c #A5BDBF",
"^. c #A2B2C1",
/* pixels */
"| o.O.T D I I D H  .O.F H 3.3.T R &. .o.F  .&.1.U ",
"K.J.0.R E 7.%.R 6.J.4...O.k.4.} o.9.2.#.| 7.b.5.| ",
";.;.;.F U @.@.F } o...F G ....F G | X.U D ` ....S ",
"1.T F r D.D.j p w.v.v.^ z ^ t.t.x ^ | L.L.*.H X.@.",
"k.o.} x ^ w.d l t w.^ ^ l ( f.d.t q.W.I.T.U.} 5.b.",
"X.} T t.z z p j.i.s.i.l.d.i.k k F.d.T.!.!.E.G ..-.",
"b F U c.Z.Z.' ! F.d.s.t.f.Z./ / s.s.,.P.P.0.F F S ",
"..H.H.c.Z.Z.' ! D.d.s.e.d.Z./ / i.h.,.P.P.8.9.0.b.",
"U o.<.M.z.m.g g ^ d.a.z.a.h.h.g.d.e.{ _ _ n.2.0.2.",
"P H B z.m.z.a # l.A.A.l.[ e.i.f.h.h.C.^.~.Q.S L L ",
"8.2.U Q [ ] # 7 Y.^.^.x.[ y.M.Z.G.S.R.' ' - | +.8.",
"@.| M V.N.N.3   Q Y.Y.x.M.g.e.' e.e.p f g C U Y E ",
"M B v A ` ` 6 + & 7 7 V V j q q q h ~ u.] ;.F U P ",
"T 6.3.; ; 7 @ X $ @ @ = u W d d d h j W W W k.6.2.",
"| @.>.; 1 7 @ X @ @ @ 2 8 W d h d h V W W Z -.:.X.",
"} G D > , , $ $ O . . % 8 4 2 2 2 5 w e e V S S H ",
"6.3.F < v 8 * @ o . . $ < 4 4 4 5 9 5 0 0 7 2. .6.",
";.X.F ;.;...H O.1.@.P | 5.k.| F >.>.| Y #.,.o.} >.",
"F F S F H H F H } U K K R ) S N F U B n M S b S F ",
"T O.3.3.O.T 3.3.@.T 3.8.6.S  .3.&.F P +.@.H H >.@.",
"..6.5.1.-.T 3.3.@.) >.5.b.U X.4.>.F @.b.5.} X.2.@.",
"H | } H H F I P P S F H } N S G G v N ..) G D P P ",
"8.6.T } 3.=.E R 3.3.U G &.1.o.N  . .T S @.@.| P *.",
"5.4.} 1.9.9.@.+.5.4.H U 1.2.o.F 5.b.o.} 2.1.,.| 9.",
"| ..H H o.o.} } o.} S S o.o.} S X.#.} D X.-.R G X."
};
