/* XPM */
static char *_552997306313[] = {
/* columns rows colors chars-per-pixel */
"25 25 72 1 ",
"  c #494B43",
". c #4F4F4D",
"X c #504F49",
"o c #475240",
"O c #4C5445",
"+ c #4E504C",
"@ c #4F5B4B",
"# c #52544E",
"$ c #545B4D",
"% c #545653",
"& c #555954",
"* c #595B56",
"= c #575B59",
"- c #5B5D5A",
"; c #556147",
": c #55634C",
"> c #5A644F",
", c #5B694D",
"< c #5A6353",
"1 c #5D6A54",
"2 c #5D625C",
"3 c #5E6B5C",
"4 c #606756",
"5 c #62645E",
"6 c #626A5B",
"7 c #63735C",
"8 c #6A775E",
"9 c #5F6261",
"0 c #5F6962",
"q c #5F6868",
"w c #626562",
"e c #646A64",
"r c #6A6B65",
"t c #62656A",
"y c #656C6B",
"u c #6A6D6B",
"i c #706E69",
"p c #667263",
"a c #697364",
"s c #6A7D64",
"d c #67716D",
"f c #6B726C",
"g c #67796A",
"h c #6E7F69",
"j c #707B66",
"k c #72746D",
"l c #767D6D",
"z c #787E6F",
"x c #676C71",
"c c #6B6E73",
"v c #6C7472",
"b c #6E7578",
"n c #727573",
"m c #747B74",
"M c #797C74",
"N c #71767A",
"B c #747B7B",
"V c #7A7E7B",
"C c #758173",
"Z c #7B8375",
"A c #77827B",
"S c #7C827C",
"D c #83867E",
"F c #82897D",
"G c #777F80",
"H c #7C8382",
"J c #828683",
"K c #858984",
"L c #898B84",
"P c #838489",
"I c #868A89",
"U c #898D88",
/* pixels */
"eui2*11&-ri%-Mn56kau&rvk2",
"IPSrahs5VPGwiGNwdAmfrCHVt",
"ccu*3ff*wut*=tt*&qy-&qtt&",
"nw&rki5w5i9rer#*ew%93e-tf",
"Su5KLSwVPVuBBN*nHAqAGVqBH",
"y92nf2$yxw<ycx%3fr&ptt=wx",
".*5w6,4ku4pf3:==*#<*-%--%",
"tJJJajFZMuAB71ZHf4FLVtVSH",
"2unv2efpewue>>vBy-BVx2mVm",
"**&5--<rr5*55ee**&-5w%&<1",
"Zm<mmmuJIV5LUKunSKuMJSeaZ",
"gu#0quebBf5mNN-fHBwvNx-37",
"+$ O#2--&*-5*rwuqe-w99-<2",
"5MMa2DKMrSnf2Mmv9HSV9nGHm",
"efvu5Bnc2ytw<dye%vbq-xxxu",
"9-&&%ww*X&..%&%%%%=%%=%%*",
"Vm*innwiMM*fSSr5SMfaCmmeV",
"cu-uct-nnf<eBVe*gve3gvuwu",
"--.---%-22;;39%#*3$o@%+%*",
"9iMMn-MMk5zSV%uMk*<af-2ff",
"eVVbu5MMf3cBH9ybv=fHBqymf",
"*ww--%1<*&&-w#%&* #t9=&<<",
"DM2wMz86Mm9*kne%pr2%ufe<l",
"Bb5nSSfaBb9<bMu-BHfwNbheA",
"te-9uuw9yt%%uu2&yv3%tx6-y"
};
