/* XPM */
static char *_553015902578[] = {
/* columns rows colors chars-per-pixel */
"25 25 87 1 ",
"  c #301D21",
". c #3A1F26",
"X c #362B2D",
"o c #3C2C2E",
"O c #3B2F30",
"+ c #373735",
"@ c #3C3233",
"# c #3A3937",
"$ c #3E3838",
"% c #443636",
"& c #423338",
"* c #4A3339",
"= c #433A3B",
"- c #4B3B3E",
"; c #41403E",
": c #463E41",
"> c #4A3E42",
", c #474344",
"< c #4B4345",
"1 c #4C4648",
"2 c #4D4B4C",
"3 c #504446",
"4 c #50464A",
"5 c #514B4C",
"6 c #554E50",
"7 c #5C4F51",
"8 c #545253",
"9 c #5B5556",
"0 c #5C5658",
"q c #6A5B5E",
"w c #6D5E61",
"e c #736769",
"r c #776C6D",
"t c #736F70",
"y c #7B7374",
"u c #7F797B",
"i c #767475",
"p c #837A7B",
"a c #877D81",
"s c #878183",
"d c #8A8284",
"f c #8E8588",
"g c #8D8A8B",
"h c #91868A",
"j c #908B8D",
"k c #918F90",
"l c #929091",
"z c #B2A9AA",
"x c #B7AEB1",
"c c #B8AFB0",
"v c #B5B2B2",
"b c #BCB5B6",
"n c #BCB7B9",
"m c #BEBBBC",
"M c #C4BCBD",
"N c #C5BFC1",
"B c #C6C2C3",
"V c #CAC4C6",
"C c #CBC7C8",
"Z c #CDCACB",
"A c #CFD1CE",
"S c #D2D1CF",
"D c #D5D5D4",
"F c #D9D6D6",
"G c #D5D8D6",
"H c #D9D9D7",
"J c #D7D7D9",
"K c #D9D7D9",
"L c #D6D9D8",
"P c #DBDBDB",
"I c #E1DEDE",
"U c #DEE1DF",
"Y c #E1E0DE",
"T c #DFE2E1",
"R c #E5E5E5",
"E c #E8E6E7",
"W c #E6E8E7",
"Q c #E8E9E7",
"! c #E9E7E8",
"~ c #E6E9E8",
"^ c #EAEAEA",
"/ c #EEF3EF",
"( c #F0F2EF",
") c #EEF3F1",
"_ c #F3F4F3",
"` c #F9F7F6",
"' c #F9FBF8",
/* pixels */
"^K8K^WH9HQ!D9D^^F-F^^G9G!",
"^G2D^^D8L^^F2GW^G>G^WD2L!",
"^G5P!^D5D^^G2K^!D>G~~P6G^",
"EK1GWRD=LE!D9DW^DXDEEG6K!",
"_P6T))I:L)_P,U)_POT))T2U`",
"Vn<xNCb3nZCb0xMbn3nBNv>vN",
"pf>yhfy>asfh7rqqi7ahfu>ii",
"`T8R__R+P)`P+Y``T4T__T1U`",
"EG:SE!H,DWEDoDQRD<S!!D:SE",
"^D>G^^G4G~EDoSW^KOD^!D:G!",
"^L5PW^D%G^^DoDQ^GXK^^G>G^",
"^F,G~QH%D^^G&D^^D>D!WG>D^",
"^G:D~^FoHQQSXSQ^D5D!!K>G^",
"!P5G~^SoG^QDoSQ^D=D!!G1D^",
"^G4K^QL4D^QF&FQ^DXD!!D5D^",
"^P>DQEP4G^ESoF!^DOD^^G6G^",
"ED2GW~D8DWED-GRESoDWRD5HE",
"`P2P_^R,T))U=U('PoI/`I,I_",
"ls0ggjaOahdr.epwy pksr9jk",
"Vn0mZCn1bCNb*zBMcobCBv9mC",
"_T2P/^I3U))G@U^_I>I)_T,P_",
"RG2D^^G$DWWDOD^!Z:G~WD2D^",
"!G8D^WD6J^^D&G^~G3G~^G2G^",
"^D5KQ^P4K!!K>G~^G>PW!G5G^",
"!K9G!WK9GW!J6G~~K9GW!G8G!"
};
