/* XPM */
static char *_552997540845[] = {
/* columns rows colors chars-per-pixel */
"25 25 241 2 ",
"   c #161311",
".  c #161312",
"X  c #171413",
"o  c #181412",
"O  c #191513",
"+  c #181514",
"@  c #191514",
"#  c #191614",
"$  c #191615",
"%  c #1B1714",
"&  c #1A1615",
"*  c #1A1715",
"=  c #1B1715",
"-  c #1B1716",
";  c #1B1816",
":  c #1C1816",
">  c #1C1917",
",  c #1D1917",
"<  c #1E1917",
"1  c #1F1B17",
"2  c #1E1918",
"3  c #1E1A18",
"4  c #1E1B19",
"5  c #1F1B1A",
"6  c #201B17",
"7  c #201B18",
"8  c #201B19",
"9  c #201C1A",
"0  c #211C1B",
"q  c #221D1B",
"w  c #211D1C",
"e  c #221D1C",
"r  c #221E1C",
"t  c #231F1D",
"y  c #241F1D",
"u  c #25201E",
"i  c #25201F",
"p  c #26211F",
"a  c #27211F",
"s  c #27221F",
"d  c #262120",
"f  c #272220",
"g  c #282221",
"h  c #282321",
"j  c #292321",
"k  c #292322",
"l  c #292421",
"z  c #292422",
"x  c #2A2422",
"c  c #2A2423",
"v  c #2A2523",
"b  c #2B2523",
"n  c #2B2623",
"m  c #2B2524",
"M  c #2C2524",
"N  c #2C2624",
"B  c #2C2625",
"V  c #2C2725",
"C  c #2D2725",
"Z  c #2D2726",
"A  c #2E2726",
"S  c #2E2826",
"D  c #2E2827",
"F  c #2F2827",
"G  c #2F2927",
"H  c #2F2928",
"J  c #302927",
"K  c #302928",
"L  c #302A28",
"P  c #312A28",
"I  c #312A29",
"U  c #302B29",
"Y  c #312B29",
"T  c #322B29",
"R  c #312B2A",
"E  c #322B2A",
"W  c #312C2A",
"Q  c #322C2A",
"!  c #322C2B",
"~  c #332C2B",
"^  c #332D2B",
"/  c #352E2B",
"(  c #332D2C",
")  c #342D2C",
"_  c #352D2D",
"`  c #342E2C",
"'  c #352E2C",
"]  c #342E2D",
"[  c #362E2C",
"{  c #372F2C",
"}  c #372F2E",
"|  c #382F2C",
" . c #35302F",
".. c #37302E",
"X. c #36302F",
"o. c #38302B",
"O. c #38302E",
"+. c #38312F",
"@. c #3A312E",
"#. c #3B322F",
"$. c #373030",
"%. c #373130",
"&. c #393230",
"*. c #383231",
"=. c #3A3230",
"-. c #3B3330",
";. c #3A3331",
":. c #383232",
">. c #3A3332",
",. c #3B3332",
"<. c #3C3332",
"1. c #393533",
"2. c #3A3433",
"3. c #3D3430",
"4. c #3E3431",
"5. c #3C3432",
"6. c #3D3533",
"7. c #3E3533",
"8. c #3F3633",
"9. c #3A3534",
"0. c #3D3634",
"q. c #3E3634",
"w. c #3F3634",
"e. c #3C3837",
"r. c #3D3837",
"t. c #3D3838",
"y. c #3E3938",
"u. c #413730",
"i. c #403734",
"p. c #413835",
"a. c #413936",
"s. c #423936",
"d. c #463B34",
"f. c #493D36",
"g. c #483D37",
"h. c #403C3B",
"j. c #413D3D",
"k. c #413E3D",
"l. c #423F3E",
"z. c #4B3F39",
"x. c #4C4139",
"c. c #50433A",
"v. c #51443A",
"b. c #53473B",
"n. c #54463C",
"m. c #58493C",
"M. c #5C4C3E",
"N. c #474444",
"B. c #484646",
"V. c #544841",
"C. c #5B4D40",
"Z. c #5E4E40",
"A. c #5D4F44",
"S. c #5F5042",
"D. c #604F40",
"F. c #605040",
"G. c #615140",
"H. c #615041",
"J. c #615143",
"K. c #635242",
"L. c #655342",
"P. c #645343",
"I. c #685643",
"U. c #695744",
"Y. c #6A5745",
"T. c #6E5A45",
"R. c #6E5946",
"E. c #6E5A47",
"W. c #6F5B47",
"Q. c #655549",
"!. c #6B5B4A",
"~. c #6E5A49",
"^. c #6E5B49",
"/. c #6C5B4B",
"(. c #705B47",
"). c #705B49",
"_. c #705C48",
"`. c #715D48",
"'. c #735D48",
"]. c #735D49",
"[. c #725E49",
"{. c #735E49",
"}. c #755E49",
"|. c #715E4E",
" X c #77624D",
".X c #77634D",
"XX c #7B6349",
"oX c #7B634A",
"OX c #78634D",
"+X c #78604E",
"@X c #7A644E",
"#X c #7D674E",
"$X c #706052",
"%X c #796552",
"&X c #7F6751",
"*X c #7E6850",
"=X c #7B6955",
"-X c #7B6956",
";X c #806651",
":X c #836B52",
">X c #856A50",
",X c #836C51",
"<X c #846956",
"1X c #8A6E54",
"2X c #8C6F56",
"3X c #806B5B",
"4X c #806C5B",
"5X c #816F5A",
"6X c #8D725C",
"7X c #94795A",
"8X c #9C7B5D",
"9X c #8B7561",
"0X c #977760",
"qX c #9C7A60",
"wX c #9E7B62",
"eX c #9D856F",
"rX c #A28361",
"tX c #A68263",
"yX c #A28563",
"uX c #A58067",
"iX c #AA8A64",
"pX c #AA8B64",
"aX c #A1836B",
"sX c #B39168",
"dX c #B1916A",
"fX c #BD996D",
"gX c #AC8A71",
"hX c #A88C75",
"jX c #AC9177",
"kX c #AE917A",
"lX c #C19B7F",
"zX c #CBA374",
"xX c #D2AA77",
"cX c #D9AF7A",
"vX c #D9AF7B",
"bX c #DAB07A",
"nX c #DAB17B",
"mX c #DBB17B",
"MX c #DCB27B",
"NX c #DDB37D",
"BX c None",
/* pixels */
"BXBXBXBXBXBXBXBXBXBXBXT T { BXBXBXBXBXBXBXBXBXBXBX",
"BXBXBX{ { { | BXBXBXZ.Z.D.H.L.BXBXBX7.#.7.#.O.BXBX",
"BXBXM.L.].].W.(.].W.W.2XtX8X2X>XXXI.Y.#X,X'.L.m.BX",
"BXY.H.+XqXqX;X].W.~.%XaXfXgX6X&X(.D.~.7XuX<X~.}.XX",
"BXBXA.4XkXhX3XQ.BXBX!.-X4X-X/.n.BXV.$XeXjX9X|.H.BX",
"BXBXBXC.S.b.u.{ BXBXBX, w w BXBXBXBX7.g.x.b.BXBXBX",
"BXBXBXBXBX, = = ; =   = = = - $ = - 0 y BXBXBXBXBX",
"BXBXBXBX      = 4 w p p p m m m d 4 = - , BXBXBXBX",
"BXBXBX, o o o 4 d W 0.<.O.>.<.7.>.G y , ; , BXBXBX",
"BXBXBXq 0 , , 0 d { s.s.0.i.7.7...G p q w w d BXBX",
"BXBXBXm k k p d m / u.i.7.7.2.O.T M k k M M H BXBX",
"BXBXz m M k BXd z W >.>.>.2.O./ G z z BXG T W BXBX",
"BXBXM G T BXBXBXm H ] 9.y.r.2.{ H BXBXBXBXT T M BX",
"BXBXG T { BXBXBXBX] %.l.N.l.9.R k BXBXBXBXH M z BX",
"BXBXT W { BXBXBXBX] 1.y.N.N.9.H BXBXBXBXBXM M G BX",
"BXBXx.z.g.BXBXBXBX] %.e.y.e.%.H BXBXBXBXBXH T BXBX",
"BXBXBXdXyXBXBXBXBXT { $.%.$.{ T BXBXBXBXBXBXd.BXBX",
"BXBXcXNXMXBXBXBXH M H T ] T W W BXBXBXBXBXsXiXBXBX",
"BXBXvXNXBXBXBXBXH G T G m z z z z BXBXBXBXmXcXBXBX",
"BXBXBXBXBXBXBXM H M G BXBXBXd z k z BXBXBXBXBXBXBX",
"BXBXBXBXBXBXT T M G BXBXBXBXBXG M G T BXBXBXBXBXBX",
"BXBXBXBXBXBXH T T W BXBXBXBXBXW W T BXBXBXBXBXBXBX",
"BXBXBXBXBXBX{ $.....BXBXBXBXBXO...2.BXBXBXBXBXBXBX",
"BXBXBXBXBXyX:X+X+X.XBXBXBXBXBX+X*X7XiXfXBXBXBXBXBX",
"BXBXBXBXBXzXBXBXBXBXBXBXBXBXBXBXBXBXBXxXBXBXBXBXBX"
};
