/* XPM */
static char *_552997550502[] = {
/* columns rows colors chars-per-pixel */
"25 25 185 2 ",
"   c #187C78",
".  c #396371",
"X  c #377E73",
"o  c #3B7B75",
"O  c #4C4947",
"+  c #58524F",
"@  c #555452",
"#  c #575662",
"$  c #586272",
"%  c #4F7E74",
"&  c #626162",
"*  c #706677",
"=  c #6F7378",
"-  c #71717B",
";  c #967E75",
":  c #33896F",
">  c #298772",
",  c #288C73",
"<  c #3B8776",
"1  c #2D9375",
"2  c #2D9478",
"3  c #35997D",
"4  c #39A27F",
"5  c #579279",
"6  c #7A9073",
"7  c #83816F",
"8  c #87837E",
"9  c #9C8C7C",
"0  c #197B85",
"q  c #2A62A0",
"w  c #3D6DA6",
"e  c #2475AA",
"r  c #256CB6",
"t  c #3C79BA",
"y  c #4F7499",
"u  c #676D81",
"i  c #667588",
"p  c #717280",
"a  c #4A79AC",
"s  c #577AA4",
"d  c #0876C4",
"f  c #0878D8",
"g  c #1878D8",
"h  c #2879CB",
"j  c #337AC2",
"k  c #3B7EC4",
"l  c #327BCD",
"z  c #237DDB",
"x  c #0976E2",
"c  c #0878E6",
"v  c #047AEF",
"b  c #0A7BEC",
"n  c #147CE4",
"m  c #1A7DE3",
"M  c #137EEC",
"N  c #057CF4",
"B  c #097EF3",
"V  c #027FFC",
"C  c #857F88",
"Z  c #3EA181",
"A  c #479984",
"S  c #74818D",
"D  c #6A819A",
"F  c #7D849C",
"G  c #45A888",
"H  c #51AC8F",
"J  c #4EAC90",
"K  c #5AA894",
"L  c #56B493",
"P  c #5DB197",
"I  c #69A69A",
"U  c #64BC9A",
"Y  c #4680BF",
"T  c #5D87BE",
"R  c #6884A9",
"E  c #7889AB",
"W  c #6A91A3",
"Q  c #7C91A7",
"!  c #7292BA",
"~  c #76ADA5",
"^  c #6DBDA1",
"/  c #5DC49C",
"(  c #68C6A2",
")  c #70C3A7",
"_  c #3580CD",
"`  c #3C82CD",
"'  c #2F83DC",
"]  c #3982D4",
"[  c #1981EC",
"{  c #0E81F4",
"}  c #0080FF",
"|  c #0A84FD",
" . c #1586F7",
".. c #2282E5",
"X. c #2685EA",
"o. c #338BE8",
"O. c #238EF7",
"+. c #2691FB",
"@. c #3799FA",
"#. c #4A82C4",
"$. c #4282CB",
"%. c #538BCE",
"&. c #5D8CC8",
"*. c #408BD7",
"=. c #6491C8",
"-. c #7698C6",
";. c #6A9DDC",
":. c #779DD0",
">. c #428FE4",
",. c #509AE9",
"<. c #5DA0EA",
"1. c #4CA1F6",
"2. c #59ADFF",
"3. c #65A8EA",
"4. c #6EB0F3",
"5. c #8B8483",
"6. c #83828B",
"7. c #9A8C89",
"8. c #829F8F",
"9. c #90908C",
"0. c #888594",
"q. c #8E9395",
"w. c #979393",
"e. c #A59786",
"r. c #B29E88",
"t. c #A48F96",
"y. c #B39F9D",
"u. c #B5A189",
"i. c #AFA299",
"p. c #BAA896",
"a. c #848CA4",
"s. c #8F8FA2",
"d. c #8399A7",
"f. c #9998AC",
"g. c #8796B8",
"h. c #989EB4",
"j. c #AB9CA8",
"k. c #86B4AD",
"l. c #92ABB1",
"z. c #ACA1A2",
"x. c #B9A9A4",
"c. c #B4B4AF",
"v. c #BAB1AD",
"b. c #A7A9B9",
"n. c #ACACBC",
"m. c #A3B7BF",
"M. c #B8B5BD",
"N. c #C5B6A7",
"B. c #C6B9BA",
"V. c #D1BBBF",
"C. c #82C5AE",
"Z. c #87C7B1",
"A. c #95CBBB",
"S. c #849AC2",
"D. c #84AACE",
"F. c #99B6DC",
"G. c #AEB3C4",
"H. c #B1B2C1",
"J. c #B7B7C9",
"K. c #A7B6D5",
"L. c #BBBCD3",
"P. c #B0BED8",
"I. c #92B3E1",
"U. c #C0BFCA",
"Y. c #A7C7C4",
"T. c #BCCACC",
"R. c #A2D2C1",
"E. c #BBD4CC",
"W. c #BAC4D7",
"Q. c #BBE2D4",
"!. c #8EC3F6",
"~. c #A2CFFB",
"^. c #C4C5CA",
"/. c #D0CDCE",
"(. c #C4C6D3",
"). c #C4CBD4",
"_. c #C6C6DA",
"`. c #CCCCDB",
"'. c #DBD5DA",
"]. c #C8D4E4",
"[. c #D3D2E0",
"{. c #DCDBE4",
"}. c #D2E3E1",
"|. c #DDE3E6",
" X c #E3E3EB",
/* pixels */
"} } } } } } } } } } } } } } } { X.#.#.M V } } } } ",
"} } } } } } } } } } } } { z $.T h.S.E %.] M } V } ",
"} } } } } } } } } } } { l g.J.L._.`.(.n.&.n V V } ",
"} } } } } } } } } } } ..-.L.[.{. X X{.n.g.k B V V ",
"} } } } } } } } } } N l s.h.n.H.M.n.n.f.a.k B } } ",
"| O. .} } } } } } } N h p C 5.7.w.6.5.C F $.B } } ",
"{ ` ] [ } } | } } } B t 8 z.U.v.x.M.v.7.s m } } } ",
"} b _ Y >.,.1.+.| } V n y 7.B.N.p.B.i.i h V } } } ",
"} } z s - = q.D.@.| } } n R e.u.r.e.6.l B V } } } ",
"} } j $ @ @ 9.g.3.@.| [ =.P.l.6 6 8.T.K.;.o.{ V } ",
"} | t $ @ & w.).!.2.1.<.). XR.U L Z.|.|.{.W.,.| } ",
"} } ..a @ O + y.{.~.4.I.(.`.A.( / Z.T.b.(.[.I.X.} ",
"} } } m w # * j.V.'.].n.b.J.k.J G I z.q.U.{.F.' } ",
"} } } } M l u 7.x.B.'.{.n.b.I G 4 5 7.N./.^.-.g } ",
"} } } } } m S e.9 t.B.V.n.G.K Z G 5 9 N.N.a.k V } ",
"} } } } } b t 7.; ; t.b.m.Y.P 2 G C.c.p.w.Y b } } ",
"} } } } } } N j D 6.0.s.(.A.L 1 1 ) E.v.! X.V V } ",
"} } } } } } } } ..&.g.g.E.^ G , > L Q.|.K.>.V V } ",
"} } } } } } } } | *.S.G.Y.H 1 < X 3 Z.|.`.;. .V } ",
"} } } } } } } } } b %.G.~ 3 > X o > K }.'.:.m V } ",
"} } } } } } } } } V ' W 5 1   e e 0 A k.Q t B } } ",
"} } } } } } } } V V g % : :   d f 0 : A 5 r v } } ",
"} } } } } } } } V m =.T.^.7 . d f . 5.T.B.R g V } ",
"} } } } } } } } } g a d.d.i r N b q $ Q Q k b V } ",
"} } } } } } } } } V v f x c V V } N x x x N } } } "
};
