/* XPM */
static char *_555582165665[] = {
/* columns rows colors chars-per-pixel */
"25 25 116 2 ",
"   c #3C3831",
".  c #3E3931",
"X  c #403B33",
"o  c #4C463E",
"O  c #4B4945",
"+  c #594B40",
"@  c #5E5145",
"#  c #55514A",
"$  c #55534B",
"%  c #56534B",
"&  c #595851",
"*  c #5F5A52",
"=  c #5F5B52",
"-  c #5A5C59",
";  c #665C53",
":  c #6F6356",
">  c #64625C",
",  c #66625D",
"<  c #6E695F",
"1  c #766A5D",
"2  c #776B5E",
"3  c #5F6464",
"4  c #5D6467",
"5  c #5B6C7A",
"6  c #6A6762",
"7  c #61686D",
"8  c #616A6D",
"9  c #626E6E",
"0  c #796D61",
"q  c #67706F",
"w  c #75746D",
"e  c #797169",
"r  c #676D70",
"t  c #767D7E",
"y  c #817467",
"u  c #827466",
"i  c #878276",
"p  c #8F877C",
"a  c #5A7486",
"s  c #6A7D84",
"d  c #617F8D",
"f  c #7E8D8D",
"g  c #6C8692",
"h  c #6794A3",
"j  c #6699B3",
"k  c #79B2C2",
"l  c #58BCEF",
"z  c #5EB8F1",
"x  c #74B3EC",
"c  c #74B8EA",
"v  c #70C6EF",
"b  c #75C5EF",
"n  c #61C2F2",
"m  c #6ECAF6",
"M  c #73CAF7",
"N  c #77CAF7",
"B  c #78CAF7",
"V  c #73D2F6",
"C  c #78D5F5",
"Z  c #78D4F6",
"A  c #7ED7F5",
"S  c #7ADAF6",
"D  c #7FDBF6",
"F  c #7ED5FA",
"G  c #978E80",
"H  c #9B9183",
"J  c #999184",
"K  c #929994",
"L  c #A99E8E",
"P  c #99A19C",
"I  c #ACA292",
"U  c #82CDE3",
"Y  c #82C6ED",
"T  c #85D3EF",
"R  c #88D3EB",
"E  c #92D2E1",
"W  c #96D7E7",
"Q  c #99DBE8",
"!  c #98DCE8",
"~  c #85CAF1",
"^  c #84D3F2",
"/  c #82D2F6",
"(  c #80DDF6",
")  c #84DCF5",
"_  c #8EDBF0",
"`  c #8CDEF7",
"'  c #8EDEF7",
"]  c #84D2FB",
"[  c #86D7FD",
"{  c #85D8FE",
"}  c #86DDFE",
"|  c #89DFF9",
" . c #8BDDFE",
".. c #96D7F1",
"X. c #93DDF2",
"o. c #84E0F6",
"O. c #89E5F5",
"+. c #87E2FB",
"@. c #88E1FB",
"#. c #8AE3FA",
"$. c #8DE4F9",
"%. c #89E0FE",
"&. c #89E2FE",
"*. c #89E5FF",
"=. c #90E9F7",
"-. c #90E1F8",
";. c #92E8FB",
":. c #90EBFD",
">. c #93ECFD",
",. c #A9E3EC",
"<. c #A4EDFE",
"1. c #A7ECFF",
"2. c #B7EDF2",
"3. c #C4EAEE",
"4. c #C0FAFD",
"5. c None",
/* pixels */
"5.5.5.5.5.5.5.5.5.5.5.5.5.5.5.5.5.5.5.5.5.5.5.5.5.",
"5.5.5.5.5.5.5.5.5.5.5.5.5.5.5.5.5.5.5.5.5.5.5.5.5.",
"5.5.5.5.5.5.5.5.5.5.5.5.5.5.5.5.5.5.5.5.5.5.5.5.5.",
"5.5.5.5.5.5.5.5.5.5.5.5.5.5.5.5.5.5.5.5.5.5.5.5.5.",
"5.5.5.5.5.5.5.5.5.5.5.5.5.5.5.5.5.5.5.5.5.5.5.5.5.",
"5.5.5.5.5.5.5.5.5.5.5.5.e 5.5.5.5.5.5.5.5.5.5.5.5.",
"5.5.5.5.5.5.5.5.5.5.6 , ; @ + 5.5.5.5.5.5.5.5.5.5.",
"5.5.5.5.5.5.5.5.4 s g d a 5 4 O 5.5.5.5.5.5.5.5.5.",
"5.5.5.5.5.5.5.5.j v m n l z b h 5.5.5.5.5.5.5.5.5.",
"5.5.5.5.5.5.5.5.U *.#.S V M [ E 5.5.5.5.5.5.5.5.5.",
"5.5.5.5.5.5.5.5.R &.#.( Z N [ W 5.5.5.5.5.5.5.5.5.",
"5.5.5.5.5.5.5.5.T } | ( C N  .! 5.5.5.5.5.5.5.5.5.",
"5.5.5.5.5.5.5.5.^ &.$.o.A / <.,.5.5.5.5.5.5.5.5.5.",
"5.5.5.5.5.5.5.5.| :.=.O.( ' 4.3.5.5.5.5.5.5.5.5.5.",
"5.5.5.5.5.5.5.5.;.>.X.&.F ] 1.2.5.5.5.5.5.5.5.5.5.",
"5.5.5.5.5.5.5.k _ X...Y c x ~ Q 5.5.5.5.5.5.5.5.5.",
"5.5.5.5.5.5.5.q f P K t r 4 8 9 - 5.5.5.5.5.5.w 5.",
"5.5.5.5.5.5.5.& $ = $ ; O   . X # 5.5.5.5.5.5.5.5.",
"5., 5.5.5.5.5.5.5.5.5.p : 5.5.5.5.5.5.5.5.5.5.5.5.",
"5.5.5.5.5.5.5.5.5.5.5.H 1 5.5.5.5.5.5.5.5.5.5.5.5.",
"5.5.5.5.5.5.5.5.5.5.5.G 1 5.5.5.5.5.5.5.5.5.5.5.5.",
"5.5.5.5.5.5.5.5.5.5.5.H 0 5.5.5.5.5.5.5.5.5.5.5.5.",
"5.5.5.5.5.5.5.5.5.5.5.L u 5.5.5.5.5.5.5.5.5.5.5.5.",
"5.5.5.5.5.5.5.5.5.5.5.I u 5.5.5.5.5.5.5.5.5.5.5.5.",
"5.5.5.5.5.5.5.5.5.5.5.i < 5.5.5.5.5.5.5.5.5.5.5.5."
};
