/* XPM */
static char *_552997567399[] = {
/* columns rows colors chars-per-pixel */
"25 25 53 1 ",
"  c #EBECE7",
". c #ECEDE8",
"X c #EDEEE9",
"o c #EEEFEA",
"O c #EFEFED",
"+ c #EFF0EB",
"@ c #F1F0EC",
"# c #F0F1EC",
"$ c #F2F1ED",
"% c #F1F2ED",
"& c #F0F0EE",
"* c #F1F1EF",
"= c #F3F2EE",
"- c #F2F3EE",
"; c #F4F3EF",
": c #F3F4EF",
"> c #F2F2F0",
", c #F3F3F1",
"< c #F5F4F0",
"1 c #F4F5F0",
"2 c #F6F5F1",
"3 c #F5F6F1",
"4 c #F4F4F2",
"5 c #F5F5F3",
"6 c #F7F6F2",
"7 c #F6F7F2",
"8 c #F6F6F4",
"9 c #F7F7F5",
"0 c #F8F7F3",
"q c #F7F8F3",
"w c #F9F8F4",
"e c #F8F9F4",
"r c #FAF9F5",
"t c #F9FAF5",
"y c #F8F8F6",
"u c #F9F9F7",
"i c #FBFAF6",
"p c #FAFBF6",
"a c #FCFBF7",
"s c #FBFCF7",
"d c #FAFAF8",
"f c #FBFBF9",
"g c #FDFCF8",
"h c #FCFDF8",
"j c #FEFDF9",
"k c #FDFEF9",
"l c #FCFCFA",
"z c #FDFDFB",
"x c #FFFEFA",
"c c #FEFFFA",
"v c #FFFFFB",
"b c #FEFEFC",
"n c #FFFFFD",
/* pixels */
"vvvtqqsvvvvvsvsqjvjjaajvv",
"-:1:+::q:::::::+;<<;@@;<<",
"1qsvsssvqtqtsssqwaawwwaaw",
"11qqqqqq11:qqqqq<00<<<0ww",
"ttq1:::qqqqqqqq:00w00<0ww",
"vvsqqqsvvsssvsstajjjawjvj",
":11:-+::::::11::;<<;@;<<<",
"ttvvvsvvqqqsvvvsajjjwwjjj",
"++---+:1:++---++@$;$@$<<>",
"vvvvvvvvvvvvvvvvjjvjjjvvn",
"---+  ++oo  ooo $;;;@@<21",
"vvvvsvsvvssssvvsaajjarjvv",
"-::-+::qq:::1111-;<-@@-<<",
"1tttsqsvvvssvvvsvnvvjjjvv",
"ttttqqssqqqqqqqq<<<;@@-;;",
"11q1::::q::1qqq:wwww<<0w1",
"vvssssssssqqsssshhduyyyyd",
"q1q1::11q::::qqq85545588>",
"vvvssvvsvsssvvvvhllllnnnn",
":-+++++:-++++:-+OOOOO&*>5",
"vvvvvvsvssssvvvvnnnllnlnn",
"::::::::-+-::::+u8855>>>>",
"vsssssssssssvvvsnnnlllnln",
"qqq:::::qqqqtsqq>>>>58888",
"sqqqsstqq::ssqqvdd8888ddd"
};
