/* XPM */
static char *_553004741341[] = {
/* columns rows colors chars-per-pixel */
"25 25 155 2 ",
"   c #07181F",
".  c #1D2015",
"X  c #1D201D",
"o  c #212419",
"O  c #272A1F",
"+  c #0E1B21",
"@  c #151C21",
"#  c #1E2223",
"$  c #1F2729",
"%  c #1A313B",
"&  c #212625",
"*  c #21252B",
"=  c #262C2E",
"-  c #292E2F",
";  c #242730",
":  c #252C33",
">  c #2C3435",
",  c #23353A",
"<  c #2E363F",
"1  c #27383F",
"2  c #2F3839",
"3  c #303634",
"4  c #32353E",
"5  c #363B3A",
"6  c #273143",
"7  c #2B3147",
"8  c #2D3C42",
"9  c #2E3449",
"0  c #2D394D",
"q  c #343B45",
"w  c #3A3D46",
"e  c #313B4D",
"r  c #393F4B",
"t  c #2D3F57",
"y  c #2E3E58",
"u  c #333B54",
"i  c #303F59",
"p  c #253862",
"a  c #2D3B62",
"s  c #364044",
"d  c #3D4341",
"f  c #3B444D",
"g  c #2E4455",
"h  c #324055",
"j  c #3B4353",
"k  c #354B57",
"l  c #394D56",
"z  c #30425A",
"x  c #39445C",
"c  c #3D4F58",
"v  c #3F5155",
"b  c #3D535C",
"n  c #394761",
"m  c #364A64",
"M  c #384862",
"N  c #36486C",
"B  c #394C6E",
"V  c #3C5163",
"C  c #3D506D",
"Z  c #354872",
"A  c #3E4C73",
"S  c #3C4A7B",
"D  c #3E517B",
"F  c #404B4F",
"G  c #434D54",
"H  c #414B5C",
"J  c #404E68",
"K  c #435567",
"L  c #4B5760",
"P  c #415866",
"I  c #4B5960",
"U  c #42536C",
"Y  c #455C6A",
"T  c #4E5F6B",
"R  c #415475",
"E  c #465B76",
"W  c #4A5970",
"Q  c #43547B",
"!  c #46587C",
"~  c #495B7F",
"^  c #50616B",
"/  c #59656D",
"(  c #5C6969",
")  c #4F6576",
"_  c #4F627D",
"`  c #546372",
"'  c #586675",
"]  c #5C6A71",
"[  c #53667B",
"{  c #546B7C",
"}  c #5A7274",
"|  c #5F7779",
" . c #74786A",
".. c #647A78",
"X. c #697E7D",
"o. c #64737B",
"O. c #768379",
"+. c #455483",
"@. c #4A5B82",
"#. c #4D6484",
"$. c #4E6388",
"%. c #546B84",
"&. c #53658A",
"*. c #546B8C",
"=. c #596E8D",
"-. c #5A718D",
";. c #576594",
":. c #576E92",
">. c #5A6E91",
",. c #5C7393",
"<. c #5D7896",
"1. c #5D7398",
"2. c #6B7C8A",
"3. c #607690",
"4. c #647B94",
"5. c #6C7E92",
"6. c #64769E",
"7. c #627C9C",
"8. c #687F9C",
"9. c #6578A2",
"0. c #697DA2",
"q. c #758682",
"w. c #7A8881",
"e. c #7F928C",
"r. c #6F8393",
"t. c #6B819B",
"y. c #768894",
"u. c LightSlateGray",
"i. c #7A8A99",
"p. c #7E9698",
"a. c #738AA9",
"s. c #7990B0",
"d. c #808B80",
"f. c #839390",
"g. c #8B9E98",
"h. c #929E94",
"j. c #9CA092",
"k. c #92A29A",
"l. c #A0A99D",
"z. c #8B9CAC",
"x. c #9EADA4",
"c. c #92AAAC",
"v. c #8FA5B2",
"b. c #A3ADA3",
"n. c #A3B0A6",
"m. c #A0B0AD",
"M. c #A3B7B6",
"N. c #EFEFED",
"B. c #EFF0EB",
"V. c #F2F3EE",
"C. c #F5F5F2",
"Z. c #F8F7F3",
"A. c #F7F8F3",
"S. c #FAFAF6",
"D. c #FEFEFA",
/* pixels */
"D.D.D.S.A.S.S.D.D.D.D.D.D.D.D.A.D.D.D.D.S.D.D.D.D.",
"V.C.C.V.V.V.C.C.V.C.V.V.C.V.V.V.V.C.V.V.V.V.V.Z.V.",
"C.S.D.D.D.S.S.D.A.S.A.S.S.D.A.S.Z.S.S.S.Z.Z.S.S.S.",
"V.V.A.p 9.,.m g +.;.;.D B R @.~ A Q ( O.d. .Z.Z.Z.",
"S.S.A.Z D B z C S S Q ! N ~ &.! a @.n.b.l.l.Z.Z.S.",
"D.D.S.@.D m g { +.@.@.&.~ &.#.#.&.&.x.x.l.l.D.D.D.",
"V.A.V.,.:._ V { 9.1.=.=.,.<.#.&.0.:.f.g.k.h.C.Z.Z.",
"S.S.D.t.t.%.Y V >.>.=.=.,.7.,.*.=.&...2.w.O.S.D.S.",
"V.V.V.t.t.[ b b R [ 3.4.=.<.<.<.:.$.| } X.f.C.Z.N.",
"D.D.D.4.r.) l % 4.8.8.3.#.#.*.,.<.<.p.c.M.m.D.D.D.",
"V.V.V.T ^ b , 8 i.z.z.5.[ %.,.a.s.a.v.r.k 1 C.Z.Z.",
"D.D.D.2.y.T 1   ' 2.u.5.r.<.%.#.#._ h k b v S.D.D.",
"V.V.V.] o.I <   f L ` ' ' _ E B U R V K W / V.C.C.",
"A.S.S.F v s > + $ = < e j U n h i M U W / / D.D.D.",
"A.A.S.2 5 : # # & # * ; r x u 0 9 u i J H H N.C.V.",
"A.A.A.> 3 : # # O o & * w 9 7 6 6 e u u r r Z.Z.C.",
"D.D.D.3 d 5 - X o . . = 4 9 9 9 0 e 0 u 0 9 S.S.D.",
"A.C.C.V.C.C.V.A.C.C.V.C.C.C.A.A.A.V.C.C.C.C.Z.Z.V.",
"D.D.D.D.D.S.D.D.D.S.D.S.D.D.D.D.D.D.D.D.D.D.D.D.D.",
"V.V.V.V.B.B.V.V.V.B.B.B.V.V.V.V.B.B.N.N.N.N.V.V.C.",
"D.D.D.D.D.D.D.D.D.S.D.S.D.D.D.D.D.D.D.D.D.D.D.D.D.",
"C.C.V.V.V.V.V.V.V.V.V.V.V.V.V.V.Z.Z.C.C.V.C.C.V.C.",
"D.D.D.S.S.S.D.S.D.S.S.D.D.D.D.S.D.D.D.D.D.D.D.D.D.",
"A.C.C.C.C.V.C.C.C.C.A.S.S.D.S.C.C.C.N.C.N.C.Z.C.Z.",
"S.S.A.S.S.S.S.S.C.V.C.S.D.C.A.D.D.Z.Z.C.C.Z.Z.D.Z."
};
