/* XPM */
static char *_552997582222[] = {
/* columns rows colors chars-per-pixel */
"25 25 61 1 ",
"  c #676D6D",
". c #6A706E",
"X c #6B787E",
"o c #717E86",
"O c #97A5A5",
"+ c #9AA6A7",
"@ c #99A8A5",
"# c #9DABAC",
"$ c #A1AFAF",
"% c #A4B5B4",
"& c #A6B9BB",
"* c #ABBCBC",
"= c #ADBDC2",
"- c #AEC0C1",
"; c #B4C6C6",
": c #BBC6C7",
"> c #B4C8C7",
", c #B5C7C9",
"< c #B6C9C9",
"1 c #BACDCC",
"2 c #BBD0CF",
"3 c #BACFD0",
"4 c #BED2D1",
"5 c #C3C6C5",
"6 c #C5C9C9",
"7 c #C8CACB",
"8 c #C2D5D4",
"9 c #CDD0D5",
"0 c #C4D8D7",
"q c #C2D7D8",
"w c #C5DADA",
"e c #CADCDC",
"r c #D5D9DC",
"t c #CCE0DF",
"y c #C6DEE0",
"u c #CCDFE1",
"i c #CDE2E3",
"p c #CEE6E8",
"a c #D1E4E5",
"s c #D2E7E8",
"d c #D5EAEB",
"f c #DAEEEE",
"g c #DCF0EF",
"h c #DBEEF0",
"j c #DEF1F1",
"k c #E4E5E7",
"l c #E1EFEF",
"z c #EFEFEF",
"x c #F2EFEF",
"c c #E7F0EF",
"v c #EDF0EF",
"b c #F3F1EF",
"n c #E5EFF0",
"m c #F1EFF0",
"M c #E4F2F2",
"N c #EBF2F2",
"B c #E6F8F8",
"V c #ECF9F9",
"C c #F1F1F1",
"Z c #F4F9F9",
"A c #F9F9F9",
/* pixels */
"X===--><30eiatreee0<*%##.",
"&duitwqw6841<<1<>>:>:1<8+",
"&w1321>111>>>>>;;;;;;;;:#",
"%1<,><>;>->>>>;>>;;;;>;1#",
"*<<;;;;;>;>>;;;;>><111<4%",
",;;;;;;>;>><><<12122448e%",
"0;:;<<<11144424880wwwwya*",
"e;11224444040eeettiassdM-",
"e48800ewiiiiippdhdhjjhhB;",
"sweyiippppddffgghhjMMjMV:",
"dddddfhjggMMMMcMNnNNNNNZ6",
"ujjfjMMMMMMNcMNNCNCCNCmA7",
"9NMMNMNNNNNNCCCCCCCCCCCC9",
"5ZNvCCCbCCCCCbCCCCCbCCCZr",
"5AbCCCCCCbCbbNbNCxCCCCCCk",
"5AvCCCCCCCCCNbCCCCCCCCCCC",
"6ZvCCCCCCCCNmmCCbbCCCCNNC",
"6AzxCxCCCCmCCCCNCNNNNvNNZ",
"6AxbmNCCCCNNNNNNMMMcMMMMM",
"7AxbvvNNMNNNMMMjMgggjdddf",
"5ZcMNNMMMMhhjjjdfdddppii8",
":Vfcjggfhhddppppiiwewqww*",
";Mdfddsappiiiwe0w8444114$",
"*fapiiyww444446111144414@",
"o===-,4qeeeree001-%%#+OO "
};
