/* XPM */
static char *_ba60ac324a44392cf915c8b749ad8b2[] = {
/* columns rows colors chars-per-pixel */
"56 56 33 1 ",
"  c #BACFE0",
". c #BED3E3",
"X c #C2D6E5",
"o c #C6D8E7",
"O c #C3D7E8",
"+ c #C6D9E8",
"@ c #CBDCEB",
"# c #D1DEEF",
"$ c #CFDBF1",
"% c #D1DEF1",
"& c #CFE1EF",
"* c #D2E3EE",
"= c #CFE5F2",
"- c #D3E4F2",
"; c #D9E5F4",
": c #D6E9F3",
"> c #DBECF5",
", c #DBE6F8",
"< c #D6ECF9",
"1 c #DCECF9",
"2 c #DEF0F7",
"3 c #DFF1FA",
"4 c #E1EEF6",
"5 c #E2EEF9",
"6 c #E3F2F6",
"7 c #EAF6F7",
"8 c #EEF8F7",
"9 c #E4F4FB",
"0 c #EAF6FC",
"q c #E6F8FF",
"w c #ECFAFD",
"e c #F4FEFE",
"r c #FDFFFF",
/* pixels */
"******:***=====<::>:>222223333qq7q87weeeerrerrrrrrrrrrrr",
"*:*:***:::===<=<:>>>>>223393qqqqqw778eeeeerrrrrrrrrrrrrr",
"64>:::*>::::<<<>:>>>22222399qqqqw7w8wweeerer8rrrrrrrrrrr",
"066>>>>><11<><><>>>422223399qqqqw8w8eeeeeeerrrrrrrrrrrrr",
"006444442>>>>>>>>22>2226396qqqqwwweweeeerererrrrrrrrrrrr",
"ew006666612>1214222666669999qqqwwwwweeeerrrrrrrrrrrrrrrr",
"ewwww079696352556666666697qqqwwwweweeeererrrrrrrrrrrrrrr",
"eeeeeww700666605666666666qqqwwwweeeeeeeerererrrrrrrrrrrr",
"eere8ee8ee000055q7qq9q0qqqwwwwwweeeererrr8rrrr8rrrrrrrrr",
"rererreee88w800079qqq7qq00qwwwwwweeeererrrrrrrrrrrrrrrrr",
"rerr8rr8reee8ww800w7700777wwwwweeeererrrrrrrrrrrrrrrrrrr",
"rrrrrrrrreeeeeeww7w7w7wwwwwwwweweeeereerrr8rrrrrrrrrrrrr",
"rr8rrrrrreereeeewwwwwwwwwwwwewweeerrerrrr8rr8rrrrrrrrrrr",
"rrrr8rrrrrrereeeewewwwwwwwewweweeeeererrrrrrrrrrrrrrrrrr",
"rrrr88rrrrereereeeeeeeeeeeweweeeeeeererrrrrrrrrrrrrrrrrr",
"rrrrrrr8rrrrrrrreeweeweeeweeeeeweeerer8rrrrrrrrrrrrrrrrr",
"rrrrrrrrrrrrrrrrereee8ree8e8eeeeeerrerrrrrrrrrrrrrrrrrrr",
"rrrrrrrrrrrrrrrrrerrerererereeeeerreerreerrrrrrrrrrrrrrr",
"rrrrrrrrrrrrrrrrrrerreeree8eeeeeeeerrerrerrrrrrrrrrrrrrr",
"rrrrrrrrrrrrrrrrrrerereereereeeeeereerrrrrrrrrrrrrrrrrrr",
"rrrrrrrrrrrrrrrrrrerrrrerererreeeerrreerrrrrrrrrrrrrrrrr",
"rrrrrrrrrrrrrrrrrrrrrrerereeeeererreerrrerrrrrrrrrrrrrrr",
"rrrrrrrrrrrrrrrrrrrrrerrrereeeeeeeerreerrrrrrrrrrrrrrrrr",
"rrrrrrrrrrrrrrrrrrrrrrrerrrerreeeererrrrrrrrrrrrrrrrrrrr",
"rrrrrrrrrrrrrrrrrrrrrrrrrerreerrrerrrerrerrrrrrrrrrrrrrr",
"rrrrrrrrrrrrrrrrrrrrrrrrrrrerrreerrerrerrrrrrrrrrrrrrrrr",
"rrrrrrrrrrrrrrrrrrrrrrrrrrrrrereeeerererrrrrrrrrrrrrrrrr",
"rrrrrrrrrrrrrrrrrrrrrrrrrrerrrrrrerrrrrrrrrrrrrrrrrrrrrr",
"rrrrrrrrrrrrrrrrrrrrrrrrrrerrrreeereerrrrerrrrrrrrrrrrrr",
"rrrrrrrrrrrrrrrrrrrrrrrrrrrrrerrrrrrrrrrrrrrrrrrrrrrrrrr",
"88rrrrrrrrrrrrrrrrrrrrrrrrrrrrreeererereerrrrrrrrrrrrrrr",
"88errrrrrrrrrrrrrrrrrrrrrrrrrrrrerrrrrrrrrrrrrrrrrrrrrrr",
"888reerrerrrrrrrr8rrrr8rrrrrrrr8rrrrrrrrrrrrr8rrrrrrrrrr",
"8888eeererrrrrrrr888r8rrrrr8rrrrrrrrrrrrrrrrrrrrrrrrrrrr",
"468e8r8rrrrrrrrrrr8rrrrrrrrrrrrrrrrrrrrrrrrr8rrrrrrrrrrr",
"445000eeerrrrrrrrrrr8rr8r8rrrrrrrrrrrrrrrrrrrrrrrrrrrrrr",
";445800rrerrrrrrrrrrrrrrrrrrrrrrrrrrrrrrrrrrrrrrrrrrrrrr",
";;44500rweerrerrrrrrrrrrrrrrrrr8rrrrrrrrrrrrrrrrrrrrrrrr",
";;;5,000e88eer8rrrrrrrrrrrrrrrrrr8rrrrrrrrrrrrrrrrrrrrre",
"#;,,,50088e8er8r8rrrrrrrrrrrrrrrrrrrr8rrr88rrrr0rrerrerr",
"%,-,,555500eweeererrrererrrrrerrrrrereerrrrerrrrrrrrrrre",
"%%%-,,1550000w8eer8rrrrrrrerrrrreerrrrrrrrrrrrrrererrerr",
"$$%%-,:>,5000ww8ee8eeerreeererrerrererre8rerrrerrrrrrrer",
"$$$%%%;;,55090ww0r8r0reerereeeeererrerrerrreeereereeerre",
"$$$$%-;;,119990q0e0eeeeeeereeeerrerrerreerereeerrrerrrrr",
"$@@$%%-;,311399000080weeeeeeeeeeerrerrerrerrrreeerereeee",
"o@@@@==-=<1333390088weeeeeeee8eeeeeeeereeeeereereeeeeeee",
"oo@o@$%%-,<1<33300008wweeeeeeeeeeeeereeeeeeeeeeeereereee",
"oo$+$@&-&-;:1111660qqwwwwweweeeeeeeeeeeeeeeeeeeeeereeeer",
"XXX$@$&@&-;:>1>13399qwwwwwweeweeeeeeeeeeeweeeeeeeeerreee",
".XX++&@&&&**;1>13369qqwqweweeweeeeeeeeeeeeeeeeeeeeeeeere",
".XX+++@@&&**;:>>22390qqwwwwwweeeeeeeeeeeeeeeeeeeereeeeee",
"..Xo++&@@****:>>>>263qqqwwwwweewweweeeeeeeeeeeeeeeeereee",
"..Xo+&&@@@@***;>>>223999w7wwwwweeeeeeeeweeeeeeeeeeeeeeee",
"..XXoooo@@@#*-*>:>>22697q0w7ww88ewweeeeeeeeeeeeeeeeeeeee",
"  .Xoooo@o@@#**:::>22696qq700w888eeewweeeeeeeeeeeweeeeee"
};
