/* XPM */
static char *_01220f0913449eb968a3c5468913dd8[] = {
/* columns rows colors chars-per-pixel */
"59 54 66 1 ",
"  c #BDC5C7",
". c #BFC7C9",
"X c #C0C5C8",
"o c #C2C7CA",
"O c #C0C8CA",
"+ c #C1C9CB",
"@ c #C3C8CB",
"# c #C1C9CC",
"$ c #C2CACC",
"% c #C2CACD",
"& c #C3CBCD",
"* c #C3CBCE",
"= c #C5CACD",
"- c #C6CBCE",
"; c #C4CCCE",
": c #C4CCCF",
"> c #C5CDCF",
", c #C5CDD0",
"< c #C6CED0",
"1 c #C6CED1",
"2 c #C7CFD1",
"3 c #C8CDD0",
"4 c #C9CED1",
"5 c #CACFD2",
"6 c #E0E8EA",
"7 c #E1E9EB",
"8 c #E2EAEC",
"9 c #E3EBED",
"0 c #E5EAED",
"q c #E6EBEE",
"w c #E4ECEE",
"e c #E5EDEF",
"r c #E7ECEF",
"t c #E6EEF0",
"y c #E7EFF1",
"u c #E7EFF2",
"i c #E8EDF0",
"p c #E9EEF1",
"a c #EAEFF2",
"s c #E8F0F2",
"d c #E8F0F3",
"f c #E9F1F3",
"g c #EBF0F3",
"h c #E9F1F4",
"j c #EAF2F4",
"k c #EAF2F5",
"l c #EBF3F5",
"z c #EBF3F6",
"x c #ECF1F4",
"c c #EDF2F5",
"v c #EEF3F6",
"b c #ECF4F6",
"n c #EDF5F7",
"m c #EEF6F8",
"M c #EFF7F9",
"N c #EFF7FA",
"B c #F1F6F9",
"V c #F0F8FA",
"C c #F0F8FB",
"Z c #F1F9FB",
"A c #F3F8FB",
"S c #F1F9FC",
"D c #F2FAFC",
"F c #F3FBFD",
"G c #F4F9FC",
"H c #F5FAFD",
/* pixels */
"ysjjbjsy9yjby999ssjssjsjssyywssjy9yyjmjysyy99wy9jmjjjjmmjjj",
"ssjjjjsswyjsswwwyssjjjjjjjsssysjyy9yjjjyjyy99w9yjjjjjjjjjjj",
"ssjjjssssywyysywwysjjbjjjjjsyyssyy9ysjjjjjyy99w9jjjjbjbjjjj",
"sjsjjjsjsywwysyywwyjbjjsbjjssyyyjyyyysjjjjyyyw99yyyjjjjjjjj",
"jsjsssjsby9wyjsy9wysjjjjjbbjssyyjyyyyyjjjjjjyy999yyjbjjjjjj",
"jjsssjjjjsywyssswyyssssjjjjjjjsyyyjyyysjjjjjyyy99yyyjjjjjjj",
"jjssssjjsjjsywyyssywyysjjjjbbjssyyjjyyyyjjjjjyy9y9yyyjjjjjj",
"jjsyssjjsjbjywysjsww9ysbssjbbjjjyjjjyyysjjjjjjyy9yw9ysjbjjj",
"jbjjywjbssjsssyyysjy77yjbjjjsjbjysjjjjys79jjjyjbyy99wyyjjjy",
"sjbsyssbsjjjssyw9yjjw99yjsjjjjjjyyjjjjjj9yyyjjjbsyyww9ysyjj",
"yjjjssjsjjjjjjss9wsjjsw9ysjjbjjjjjjsyjjjyyyyyjjjjsy99yyyyjj",
"ysjjbjssjjjbjjjjwyyjjjw7wssbbbssjjjyysyjjywwsjjjjjyy9y9yjjj",
"yysjbjjssjjjbjjjbywysjyw9ysbbjjsmjjyysjjjswysjjsjjyyyy9wysy",
"yyysjbjsssjjjjjsbjwwyssywyssjjjsjbjjsyyyjjyysyyybjjyyyywyyy",
"syyyjbjjysssjjjjbjswwssswyysjjbjjjjjjyyyyjjjsyyyjjjjyyy999w",
"jswyjbbbywysjsssjjssyssjwywyssbbjjjjjsy9yjmjs99yjjyjyyy9999",
"jsyyssjmsjsysjbbsjjsssywss99wyjjjjjjjjjbjyyyjjjyyymjyyjm999",
"sssssjjjjsssssjjjjjjsywyssyywysjjjjyyjbjyyyyjjyyyyjjjjjjyyy",
"bjsssssjjjjssssjjjjjjsyyysjsywysjjyjjjjjjsyyyjssyyyyjjjjssy",
"bjjjssysbjjsssssssjjsyyy9sjjwwwsyyjjjjjjjyyyyysyy9wyjjjjjjj",
"jjbjjsywjjjjjssyjsjjjjsswsbjswywyyyjjjjjjjsyyyyjjy99yjjyjjj",
"jbjjssyysjjjjssssjjjjjjsyysssswy9yyjjjjyjjjsyyyyjy9yyyjjmjj",
"sjjbjjyyyssjjjjsjsjjjjjjyy9ysbsw99sjbjjjsjjjyyyyjysy9yyjmbj",
"sjjjjsswyyjjbjsssjjbbjjjjw9wjbjw9yyjjbjjyjmjy99yjjjy99yjjjj",
"bjjjjjjjssysbbjssssjsjjjjjywwyjby99yjjjyjjjjjyyyyyjjjy99yjj",
"sjjjjjjjjswsjjjjssssjjjjjsyyyysjyywwyjjjjjbjjjyyyyjjjy99yyy",
"sssbbjjjbsyysjbjsssjsjjjjjjssssyjjy969ymjjjjjjjjyssyyyyyyyy",
"wyjjbbjsbsyyssjjjsjsjsjsjjjbjsywjjyy99yjbjmjmjbjyyyyyyjjy9y",
"wysjjbjjbjssyyjbsjsjsjsjsjjbjjywyyjjy99yjjjmmjjjjjyyyyjjyy9",
"yysyjsjjjjjsyssbjjjsjsssjjbbbssy9yjjjyw9jjjjbjbjjjyyyyjjjjy",
"jsyyyysjjjjjyyssjjjsjsssjjjjjjsjyysjjj99yyjjjbjjjjjyssysjjj",
"bjswwysbsjbbswssjjjjssssjjjjjjbjy9ysjjy9yyyjjjjjjjjjjsyybjj",
"ysbs97ybsjjjjsssssjjjjsssjjjjjjbjs9wsjbjw9wjbmjsbjbjjjjyjjj",
"wjjsw9wjjsjjjjssyyjjjjssjsjjjjbjjsywysjjywwyjbbsjbjjjjjyjjj",
"yssssswyssjjjsjsyyjjjjjjsjjjjjjbsjsyyysjyy99ssjbjjjjjjjjsss",
"syssjjs9sssjjjjsyyssjjjbjsjjjjbjjjbsw9yjjsw9wsjbjjjjjjjjjsy",
"jsyybby9yssjjjjjsysssjbbsjjjjjjbsbbjy9wsjsw99wjbjjjjjjjjjyy",
"jjssjjyyyssjjjjjsssssjjjjsjjjjbjsjjsyyysssyy99ysyjjjjjjbsys",
"bjssssjswsssjjjjjssssjjbsjjjjjjbjjsyssywyysswwwwyjjjjbbjjjj",
"jbsssysjyysjjbjjbjssyssjjsjjjjbjjsyyjjywwyjjsw9wjjjjjjjjjjj",
"jjjjjsyyss9wsjjjjsjjjjsysjjjyysbjjjjjjjjsywsbjsyyyjjsyjbjjj",
"jjjbjsyysyyysjjjjjjjjsyssjbjyysjjjjjjjjjyyyyjjswyyjjjjjjjjj",
"jjbjjjjsssssyysbjjjjssywysbjjsssjjjjjjjjjsyyssssyyyyjjjjjjj",
"jjjbjbjjyyjswysjbjbjjsyyysjbjjsyjjjjjjjjjjyyyysjyy9yjjbjjjj",
"ssjjbjbjyjbjswsjjjjjjsyyyysjbjjyjjjjjjjjjjsyyyysjy99jjjjjjj",
"ywssjjjbysjjsyyyjsjjjsssyyyjbbjsjjjjjjjjsjjswyssdy9yyddjjjj",
"wwysjjjjssssjjywyyjjjjjssyyybbjjjjjjjjjjsjbjswyydjyyeeppjjj",
"9wwyssjjjsssjjy9yyssjjjjsywyjbbjjjjjjjjjsjbjswywdjje99yjjjj",
"7999wyyyjjjssssswwwsbbsyjssyysjjjjdddddzddddeddd8pvppqqqpgp",
"syywwsjjjjjssjjsyyysbbjybjjjjjbmjjjdddzzzzzzzzzzqppvcppqcgc",
"bjy9wwsbjjsjjssssywwsjjsjjsjjjjjjjdddddzzdzzdzhz0ppvvpiqpgp",
"jsww99wwjsjssssysswyyyjjyyywywywjdddddddddddddddqqqpvvpqqqq",
"ZZZmbbjsZZZDZZmmZZmbbbDDZmmZmmbmDCCCCCCCDCDCCDCDGBcvCGGGccc",
";<<<<$..;;;<;;$+$;;$++;<;<<<;;;$:1:::::.111111115-oXo=34oo@"
};
